{"title":"Star Wars Rebels S02E06 Blood Sisters 1080P WEB-DL DD5 1 H 264","uid":12797531,"size":927909764,"categoryP":"video","categoryS":"hd___tv_shows","magnet":"?xt=urn:btih:698420585e9ff2844b9e3c46b972bfe67a585a6d&amp;dn=+Star+Wars+Rebels+S02E06+Blood+Sisters+1080P+WEB-DL+DD5+1+H+264&amp;tr=udp%3A%2F%2Ftracker.leechers-paradise.org%3A6969&amp;tr=udp%3A%2F%2Fzer0day.ch%3A1337&amp;tr=udp%3A%2F%2Fopen.demonii.com%3A1337&amp;tr=udp%3A%2F%2Ftracker.coppersurfer.tk%3A6969&amp;tr=udp%3A%2F%2Fexodus.desync.com%3A6969","seeders":3,"leechers":0,"uploader":"jmanwf","files":2,"time":1447998432,"description":"On a mission to escort a courier of secret information vital to the rebel cause to a rendezvous point, Sabine must face off against her old friend and partner.\r\n\r\n\r\n\r\n\r\nVideo\r\nID : 2\r\nFormat : AVC\r\nFormat/Info : Advanced Video Codec\r\nFormat profile :   \r\nFormat settings, CABAC : Yes\r\nFormat settings, ReFrames : 4 frames\r\nCodec ID : avc1\r\nCodec ID/Info : Advanced Video Coding\r\nDuration : 22mn 7s\r\nBit rate : 5 078 Kbps\r\nWidth : 1 920 pixels\r\nHeight : 1 080 pixels\r\nDisplay aspect ratio : 16:9\r\nFrame rate mode : Constant\r\nFrame rate : 23.976 fps\r\nColor space : YUV\r\nChroma subsampling : 4:2:0\r\nBit depth : 8 bits\r\nScan type : Progressive\r\nBits/(Pixel*Frame) : 0.102\r\nStream size : 804 MiB (91%)\r\nLanguage : English\r\nEncoded date : UTC 2015-11-19 11:30:01\r\nTagged date : UTC 2015-11-19 11:31:59\r\nColor range : Limited\r\nColor primaries : BT.709\r\nTransfer characteristics : BT.709\r\nMatrix coefficients : BT.709\r\n\r\nAudio #1\r\nID : 1\r\nFormat : AAC\r\nFormat/Info : Advanced Audio Codec\r\nFormat profile : LC\r\nCodec ID : 40\r\nDuration : 22mn 7s\r\nBit rate mode : Variable\r\nBit rate : 126 Kbps\r\nMaximum bit rate : 193 Kbps\r\nChannel(s) : 2 channels\r\nChannel positions : Front: L R\r\nSampling rate : 48.0 KHz\r\nCompression mode : Lossy\r\nStream size : 19.9 MiB (2%)\r\nLanguage : English\r\nEncoded date : UTC 2015-11-19 11:30:01\r\nTagged date : UTC 2015-11-19 11:31:59\r\n\r\nAudio #2\r\nID : 3\r\nFormat : AC-3\r\nFormat/Info : Audio Coding 3\r\nMode extension : CM (complete main)\r\nFormat settings, Endianness : Big\r\nCodec ID : ac-3\r\nDuration : 22mn 7s\r\nBit rate mode : Constant\r\nBit rate : 384 Kbps\r\nChannel(s) : 6 channels\r\nChannel positions : Front: L C R, Side: L R, LFE\r\nSampling rate : 48.0 KHz\r\nBit depth : 16 bits\r\nCompression mode : Lossy\r\nStream size : 60.8 MiB (7%)\r\nLanguage : English\r\nEncoded date : UTC 2015-11-19 11:30:01\r\nTagged date : UTC 2015-11-19 11:31:59\r\n\r\nText\r\nID : 4-CC1\r\nFormat : EIA-608\r\nMuxing mode : Final Cut\r\nCodec ID : c608\r\nDuration : 21mn 26s\r\nBit rate mode : Constant\r\nStream size : 0.00 Byte (0%)\r\nLanguage : English\r\nEncoded date : UTC 2015-11-19 11:30:01\r\nTagged date : UTC 2015-11-19 11:30:03\r\n\r\n\r\n\r\nSOURCE: https://itunes.apple.com/us/tv-show/id1042728340","torrent":{"xt":"urn:btih:698420585e9ff2844b9e3c46b972bfe67a585a6d","amp;dn":"+Star+Wars+Rebels+S02E06+Blood+Sisters+1080P+WEB-DL+DD5+1+H+264","amp;tr":["udp%3A%2F%2Ftracker.leechers-paradise.org%3A6969","udp%3A%2F%2Fzer0day.ch%3A1337","udp%3A%2F%2Fopen.demonii.com%3A1337","udp%3A%2F%2Ftracker.coppersurfer.tk%3A6969","udp%3A%2F%2Fexodus.desync.com%3A6969"],"infoHash":"698420585e9ff2844b9e3c46b972bfe67a585a6d","infoHashBuffer":{"type":"Buffer","data":[105,132,32,88,94,159,242,132,75,158,60,70,185,114,191,230,122,88,90,109]},"announce":[],"urlList":[]}}